<?xml version="1.0" standalone="no"?><!DOCTYPE svg PUBLIC "-//W3C//DTD SVG 1.1//EN" "http://www.w3.org/Graphics/SVG/1.1/DTD/svg11.dtd"><svg class="icon" width="200px" height="200.00px" viewBox="0 0 1024 1024" version="1.1" xmlns="http://www.w3.org/2000/svg"><path fill="#333333" d="M510.2 678.7C418 678.7 343 603.8 343 511.8s75-166.9 167.2-166.9c92.2 0 167.2 74.9 167.2 166.9s-75 166.9-167.2 166.9z m0-237.2c-38.9 0-70.5 31.5-70.5 70.3s31.6 70.3 70.5 70.3 70.5-31.5 70.5-70.3-31.6-70.3-70.5-70.3zM635.9 925.7c-21.7 0-43-9.1-56.9-24.5-16.4-18-49.6-42.8-69.2-42.8-21 0-55.7 27.8-68.8 42-13.9 15.1-35 24.1-56.5 24.1-10.4 0-20.4-2-29.6-6.1l-2.1-0.9-103.5-57.8-2-1.4c-27.7-19.3-38.2-57.2-24.6-88 2-4.7 7.3-19.6 7.3-31.4 0-45.9-37.5-83.3-83.5-83.3h-4.2c-15.1 0-29.3-6.5-40.1-18.2-9.3-10.1-15.8-23.9-18.8-39.7-0.9-5-9.1-49.4-9.1-85.4 0-34.7 7.5-77 9-85.2v-0.1c3-15.9 9.5-29.6 18.8-39.8 10.8-11.8 25-18.2 40-18.2h4.3c46.1 0 83.5-37.4 83.5-83.3 0-11.8-5.3-26.6-7.3-31.4-13.7-30.9-3.1-68.7 24.7-88.1l2.1-1.5L358.9 105l2.2-0.9c9-3.8 18.7-5.8 29-5.8 21.3 0 42.4 8.8 56.3 23.4 16.1 16.9 48.7 40.2 67.8 40.2 18.9 0 51.2-22.9 67.3-39.5 13.8-14.4 34.7-22.9 55.8-22.9 10.5 0 20.4 2 29.6 6l2.1 0.9 105.5 58.5 2 1.4c27.8 19.4 38.4 57.3 24.7 88.2-2 4.7-7.3 19.6-7.3 31.3 0 46 37.5 83.3 83.5 83.3h4.3c15 0 29.2 6.5 40 18.2 9.3 10.1 15.8 23.9 18.8 39.7 0.9 4.9 9.1 49.3 9.1 85.4 0 36.3-8.1 80.4-9.1 85.4-3 15.9-9.5 29.6-18.9 39.7-10.8 11.7-25 18.2-40 18.2h-4.2c-46.1 0-83.5 37.4-83.5 83.3 0 11.7 5.3 26.7 7.4 31.5 13.6 30.8 3 68.7-24.7 87.9l-2.1 1.5L667.3 919l-2.1 0.9c-9.2 3.9-19 5.8-29.3 5.8zM509.8 761.8c32.1 0 66 13.1 100.8 38.8 11.7 8.6 21.4 17.3 28.1 23.6l66.2-36.5c-3.7-12.5-7.8-30.3-7.8-48.9 0-46.4 17.7-90.4 49.8-124.1 27.5-28.8 62.5-47.3 101.5-53.6 2.1-14.2 4.4-33.4 4.4-49 0-15.5-2.3-34.7-4.4-49-39-6.3-74-24.8-101.5-53.6-32.1-33.6-49.8-77.7-49.8-124.1 0-18.6 4-36.4 7.8-48.9l-65.4-36.3c-6.6 5.9-16.3 14-27.8 22.1-33.9 23.8-66.7 35.9-97.5 35.9-31.1 0-64.2-12.3-98.3-36.6-11.7-8.3-21.4-16.6-28.1-22.6l-68.7 38c3.7 12.5 7.7 30.2 7.7 48.8 0 46.4-17.7 90.4-49.8 124.1-27.5 28.8-62.5 47.3-101.5 53.6-2.1 14.3-4.4 33.4-4.4 49 0 15.4 2.3 34.6 4.4 49 39 6.3 74 24.8 101.5 53.6 32.1 33.6 49.8 77.7 49.8 124 0 18.7-4 36.5-7.8 49l62.9 35.1c6.6-6.2 16.3-14.6 27.9-23.1 34.6-25.4 68.3-38.3 100-38.3z" /></svg>