<?xml version="1.0" standalone="no"?><!DOCTYPE svg PUBLIC "-//W3C//DTD SVG 1.1//EN" "http://www.w3.org/Graphics/SVG/1.1/DTD/svg11.dtd"><svg class="icon" width="200px" height="200.00px" viewBox="0 0 1024 1024" version="1.1" xmlns="http://www.w3.org/2000/svg"><path fill="#333333" d="M791.16 771.096H204.427l-5.929-5.656c-47.18-45.107-68.198-89.9-62.505-133.106 7.926-59.693 64.44-91.198 66.843-92.515l4.591-2.499h577.645c42.705-28.29 63.84-56.44 62.874-83.76-1.28-35.942-41.987-67.734-62.232-79.923h-501.77l-5.038-3.215c-60.76-38.806-89.883-79.572-86.453-121.15 5.192-63.665 85.968-99.007 89.395-100.498l8.08-1.646h460.308v40.92h-455.85c-19.143 9.181-58.748 34.235-61.168 64.634-1.918 24.006 19.764 51.617 62.758 80.04h500.337l4.533 2.44c3.488 1.88 85.367 46.715 88.002 116.774 1.645 43.902-27.532 85.306-86.685 123.07l-5.041 3.237h-578.67c-10.404 6.932-37.857 28.054-41.909 59.733-3.584 27.9 11.353 58.9 44.445 92.225h570.167v40.895z m-301.767-552.36c0 19.764-16.022 35.786-35.805 35.786-19.78 0-35.806-16.022-35.806-35.785v-86.955c0-19.78 16.022-35.806 35.806-35.806 19.78 0 35.805 16.022 35.805 35.806v86.955z m184.123 393.817c0 19.78-16.023 35.803-35.806 35.803-19.784 0-35.803-16.022-35.803-35.803v-86.958c0-19.763 16.019-35.785 35.803-35.785 19.783 0 35.806 16.022 35.806 35.785v86.958zM453.59 796.672c0 19.78-16.022 35.802-35.806 35.802-19.78 0-35.806-16.022-35.806-35.802v-86.938c0-19.783 16.022-35.802 35.806-35.802 19.78 0 35.806 16.019 35.806 35.802v86.938z" /></svg>