<?xml version="1.0" standalone="no"?><!DOCTYPE svg PUBLIC "-//W3C//DTD SVG 1.1//EN" "http://www.w3.org/Graphics/SVG/1.1/DTD/svg11.dtd"><svg class="icon" width="200px" height="200.00px" viewBox="0 0 1024 1024" version="1.1" xmlns="http://www.w3.org/2000/svg"><path fill="#333333" d="M516.033287 635.901944c-92.220694 0-167.248833-75.028139-167.248833-167.250049 0-92.22191 75.028139-167.250049 167.248833-167.250049 92.22191 0 167.250049 75.028139 167.250049 167.250049C683.283336 560.873805 608.255197 635.901944 516.033287 635.901944zM516.033287 336.82082c-72.692822 0-131.832292 59.13947-131.832292 131.832292s59.140686 131.832292 131.832292 131.832292 131.832292-59.13947 131.832292-131.832292S588.726109 336.82082 516.033287 336.82082zM505.579095 891.975531l-0.958453-0.104603c-29.879894-3.259713-64.818425-19.598418-101.034083-47.253679-34.387542-26.256504-68.719134-61.643854-99.281379-102.336752C234.828284 649.77397 194.980722 544.784445 194.980722 454.231313c0-83.971673 32.239537-163.348124 90.780582-223.508078 58.357382-59.973859 136.53455-94.438029 220.140113-97.051881l0.729787-0.012163 10.129437 0.014596c83.570291 2.635746 161.715835 37.097483 220.053755 97.048232 58.541045 60.159954 90.781798 139.537621 90.781798 223.508078 0 90.553132-39.847562 195.542658-109.325674 288.050401-30.561028 40.692898-64.891404 76.080248-99.278946 102.336752-36.216874 27.652829-71.155405 43.993966-101.038948 47.253679l-0.953588 0.104603L505.579095 891.975531zM506.622689 169.085462c-154.89233 5.050123-276.22421 130.302172-276.22421 285.147067 0 83.042412 37.260469 180.280388 102.226068 266.779556 57.018223 75.917262 125.362734 129.082213 174.114908 135.444735l0.783304 0.10217 7.528965 0 0.784521-0.10217c48.750958-6.361306 117.095469-59.526256 174.116124-135.443519 64.965599-86.502816 102.224851-183.739576 102.224851-266.780772 0-154.844894-121.331879-280.096944-276.22421-285.147067l-0.396517-0.006082-8.736761 0L506.622689 169.085462z" /></svg>