<?xml version="1.0" standalone="no"?><!DOCTYPE svg PUBLIC "-//W3C//DTD SVG 1.1//EN" "http://www.w3.org/Graphics/SVG/1.1/DTD/svg11.dtd"><svg class="icon" width="200px" height="200.00px" viewBox="0 0 1024 1024" version="1.1" xmlns="http://www.w3.org/2000/svg"><path fill="#333333" d="M150.96832 210.13504a26.24512 26.24512 0 0 1-26.20416 26.20416H26.2656A26.29632 26.29632 0 0 1 0 210.13504v-98.5088a26.29632 26.29632 0 0 1 26.2656-26.2656h98.49856a26.25536 26.25536 0 0 1 26.20416 26.2656v98.5088z m873.03168 0a26.24512 26.24512 0 0 1-26.2656 26.20416H282.23488a26.23488 26.23488 0 0 1-26.25536-26.20416v-98.5088a26.25536 26.25536 0 0 1 26.25536-26.2656h715.49952A26.25536 26.25536 0 0 1 1024 111.62624v98.5088zM150.96832 561.24416a26.22464 26.22464 0 0 1-26.20416 26.20416H26.2656A26.28608 26.28608 0 0 1 0 561.24416v-98.42688a26.34752 26.34752 0 0 1 26.2656-26.32704h98.49856a26.30656 26.30656 0 0 1 26.20416 26.32704v98.42688z m873.03168 0a26.23488 26.23488 0 0 1-26.2656 26.20416H282.23488a26.22464 26.22464 0 0 1-26.25536-26.20416v-98.42688a26.30656 26.30656 0 0 1 26.25536-26.32704h715.49952A26.30656 26.30656 0 0 1 1024 462.81728v98.42688zM150.96832 912.36352a26.2144 26.2144 0 0 1-26.20416 26.27584H26.2656A26.2656 26.2656 0 0 1 0 912.36352v-98.41664a26.35776 26.35776 0 0 1 26.2656-26.33728h98.49856a26.3168 26.3168 0 0 1 26.20416 26.33728v98.41664z m873.03168 0a26.2144 26.2144 0 0 1-26.2656 26.27584H282.23488a26.2144 26.2144 0 0 1-26.25536-26.27584v-98.41664a26.30656 26.30656 0 0 1 26.25536-26.33728h715.49952A26.3168 26.3168 0 0 1 1024 813.94688v98.41664z" /></svg>