<?xml version="1.0" standalone="no"?><!DOCTYPE svg PUBLIC "-//W3C//DTD SVG 1.1//EN" "http://www.w3.org/Graphics/SVG/1.1/DTD/svg11.dtd"><svg class="icon" width="200px" height="200.00px" viewBox="0 0 1024 1024" version="1.1" xmlns="http://www.w3.org/2000/svg"><path fill="#333333" d="M511.070326 8.277524c-278.163277 0-503.674381 225.611387-503.674381 503.897462s225.511103 503.897462 503.674381 503.897462c278.162254 0 503.673357-225.611387 503.673357-503.897462S789.23258 8.277524 511.070326 8.277524zM511.070326 906.260435c-217.21823 0-393.912511-176.793542-393.912511-394.08545 0-217.292931 176.695305-394.08545 393.912511-394.08545 217.217207 0 393.914558 176.792519 393.914558 394.08545C904.984884 729.467917 728.28651 906.260435 511.070326 906.260435zM549.852608 501.691213l-0.537236-258.84121c-0.494257-9.853415-25.125237-27.455305-44.384883-27.455305-19.282159 0-40.992623 17.600867-41.585117 27.455305l0.339738 241.584174c-0.436952 0.415462-0.87595 0.824785-1.306762 1.254573-0.047072 0-0.072655 0.050142-0.098237 0.098237-21.710464 21.684882-24.803919 52.03512-7.773034 66.986647L658.480654 735.307925c7.699356 6.783497 28.073382 12.278651 45.895283-5.54325 17.873066-17.873066 12.177344-38.122249 5.567809-45.895283L549.852608 501.691213z" /></svg>