<?xml version="1.0" standalone="no"?><!DOCTYPE svg PUBLIC "-//W3C//DTD SVG 1.1//EN" "http://www.w3.org/Graphics/SVG/1.1/DTD/svg11.dtd"><svg class="icon" width="200px" height="200.00px" viewBox="0 0 1024 1024" version="1.1" xmlns="http://www.w3.org/2000/svg"><path fill="#333333" d="M91.605 936.394H929.46c15.518 0 28.098-11.94 28.098-26.668 0-14.725-12.58-26.669-28.098-26.669H119.703v-768.49c0-14.726-12.58-26.668-28.098-26.668-15.517 0-28.098 11.94-28.098 26.667v795.161c0 14.729 12.58 26.667 28.098 26.667z m0 0"  /><path fill="#333333" d="M227.117 728.849c32.871 0 59.513-28.733 59.513-64.165a68.43 68.43 0 0 0-4.376-24.158l117.503-145.6a55.562 55.562 0 0 0 17.817 2.926c17.34 0 32.946-8 43.82-20.757l110.94 59.98c0.36 35.098 26.86 63.447 59.5 63.447 32.877 0 59.517-28.732 59.517-64.164 0-1.19-0.034-2.37-0.091-3.538l154.545-143.13c7.37 3.53 15.517 5.498 24.102 5.498 32.872 0 59.518-28.723 59.518-64.16 0-35.438-26.646-64.167-59.518-64.167-32.863 0-59.52 28.73-59.52 64.167a68.53 68.53 0 0 0 3.231 20.85L668.925 486.19c-10.173-8.757-23.06-14-37.09-14-16.176 0-30.846 6.972-41.576 18.274l-113.328-61.18c-2.1-33.381-27.858-59.759-59.357-59.759-32.867 0-59.52 28.73-59.52 64.168 0 9.718 2.02 18.932 5.609 27.19L248.028 604.6a55.622 55.622 0 0 0-20.911-4.084c-32.864 0-59.52 28.735-59.52 64.167 0 35.433 26.656 64.166 59.52 64.166z m0 0"  /></svg>